<?xml version="1.0" encoding="UTF-8"?>
<svg id="Vrstva_15" data-name="Vrstva 15" xmlns="http://www.w3.org/2000/svg" viewBox="0 0 1393.17449 838.3919">
  <defs>
    <style>
      .cls-1 {
        fill: #fff;
      }

      .cls-2 {
        fill: #ededed;
      }

      .cls-3 {
        fill: #e4003a;
      }

      .cls-4 {
        fill: #a31834;
      }

      .cls-5 {
        fill: #bdbcbc;
      }
    </style>
  </defs>
  <g id="Vrstva_21" data-name="Vrstva 21">
    <g>
      <g>
        <path class="cls-1" d="M77.623,208.93368c-1.01855-1.01807-1.83203-2.44287-2.23926-3.86816-.61133-1.4248-1.62891-2.44287-3.46094-3.46094-1.01855-6.92188-3.46094-17.50781-3.46094-25.65137,0-1.83203.20312-3.46094.40723-4.88574,1.01758-4.479,5.49609-8.34717,4.47852-12.62207.81445-.20361,1.4248-.61084,1.62891-1.42529.20312-.61084.81445-.81445,1.83203-.61084,5.29297-16.69385,8.55078-16.49023,13.43652-30.94434-8.75391-8.14355-7.12598-20.76562-9.97559-29.92676,6.92188-10.1792,18.72949-11.19727,32.36914-14.04736,27.6875-8.75391,37.25586-7.3291,64.53613-12.21484.20312.40723.40723.61084.81445.61084h1.22168c.40723,1.01758,1.2207,1.4248,2.03516,1.4248v-1.22119l-.20312-.81445c1.83203,0,4.07129,1.83203,3.46094-.81445,3.25684,5.7002,8.34668,8.95752,14.4541,11.60449.40723,2.8501-.40723,3.86768-.40723,5.49658,0,.61084.2041,1.4248.40723,2.64648-6.10742,10.58643-15.87891,13.64014-25.44727,15.26855-10.17969,1.62891-21.58008,2.85059-31.55566,8.95801-1.01758-.40723-1.83203-.61084-2.64648-.61084-3.05371,0-5.08984,2.23926-9.97559,1.4248-2.23926,1.83252-5.08984,2.44336-7.93945,3.25732.40723,1.42529.81348,2.44336.81348,3.86816,0,1.62891,0,3.05371.40723,4.27539,2.64648.20361,5.49707.40723,8.34766.40723,3.25684,0,6.71777-.20361,10.17871-.61084,6.71875-.61084,13.43652-1.01807,19.95117-1.22168.20312.61084,0,1.22168-.20312,1.42529-.2041.20361-.40723.81445-.40723,1.4248,5.7002,3.66455,7.93945,10.58643,14.25,9.97559.81445,1.83252,1.42578,3.66455,1.42578,5.49707,0,1.22119-.2041,2.03564-.61133,3.25732-10.17871,6.71826-19.95117,15.67578-34.8125,15.06494h-1.62891c-.61035,0-1.01758-.20361-1.62793-.81445-1.42578.61084-3.05371.81445-5.29395.61084h-1.62793c-1.42578,0-2.64648.20361-3.86816.81445-1.83203-.61084-4.07227-1.01807-6.31152-1.01807-2.64648,0-4.88574-.40723-6.71777-1.01758-4.68262,6.92139-8.95801,14.25049-12.21484,22.80127,4.88574.81396,8.95703,1.01758,12.41797,1.01758,11.80762,0,19.13672-2.8501,33.3877-2.44287,3.46094-1.62891,7.3291-2.64648,11.60449-3.25732s8.14355-1.42529,12.01074-2.64648c5.49707,1.62842,6.51465,10.38281,12.21582,9.36475,3.05371,2.8501.61035,7.93945,5.08887,7.3291-10.17871,20.96875-25.65137,20.56152-48.45215,24.42969-.61133.20361-1.22168.20361-1.62891.20361-.81445,0-1.4248-.20361-1.83203-.40723-1.01855-.20361-2.23926-.40723-3.25781-.40723-6.92188,1.22168-16.89746,2.8501-26.87305,2.8501-10.78906,0-21.7832-2.03564-28.50098-8.34668Z"/>
        <path class="cls-1" d="M191.50776,202.41904c0-2.03564.20312-3.86816.81445-5.90381.61035-13.23291,13.84375-25.65137,22.39355-34.20215,1.22168-4.88574,9.56836-7.53223,12.62207-13.0293-1.01758-3.05371-2.84961-6.10742-5.29297-9.36475-2.64648-3.05371-5.29297-6.10742-7.3291-9.56836-.20312-.61084-.81348-.81445-1.4248-.61084-.81445.20361-1.4248.20361-1.62891-.20361.61133-3.25732-1.83203-7.73584-4.68164-10.78955.40723-1.83252,1.4248-4.68262,1.4248-7.93994,0-1.22119-.2041-2.64648-.61133-4.07178,0-4.07129,4.07227-8.14307,2.64746-10.99316.61035-.20361,1.4248-.20361,2.03516-.20361,4.88672,0,7.5332,3.25732,10.99414,3.25732.61035,0,1.01758-.20361,1.62793-.40723v.81445c0,1.83203,1.83301,1.01758,1.83301,2.44287,9.16113,2.8501,20.56152,19.54395,24.63281,25.44775,12.82617-7.93945,30.94531-23.81885,45.80664-29.92676,9.36426,4.27539,9.56836,13.84375,13.43652,18.52637-1.01855,2.23926-2.03613,4.07129-3.25781,5.49658-1.4248,1.62891-2.23926,3.46094-2.84961,5.29297-2.85059,1.22168-6.10742,3.05371-9.97559,5.49707-6.92188,4.07129-16.49023,10.99316-30.53809,22.80127,3.05371,3.86768,5.08984,7.32861,6.51465,9.77197l1.83301,4.07129c4.68164,3.46094,5.7002,10.38281,11.19629,13.0293.81445,4.07178,2.03613,7.53271,3.46094,10.58643,1.42578,3.05371,2.23926,6.31104,2.03613,9.77197-1.01758,2.8501-2.23926,5.49707-4.07129,7.53271-1.62891,1.83203-3.05371,3.86816-3.86816,6.10742-2.44336.81445-5.08984,1.42529-6.31152,3.05371l-11.40039-8.14307c-4.07129-13.43652-12.62207-26.05859-19.54395-34.81299-10.99316,8.14355-20.56152,18.32275-28.50195,29.51953-1.01758,10.99365-2.64648,13.23291-12.8252,17.10107-6.92188-4.88623-11.19727-12.41846-11.19727-19.95117Z"/>
        <path class="cls-1" d="M311.53804,217.07724c.81445-4.479-5.9043-8.95801-5.9043-13.0293,0-1.22168.61133-2.23975,2.03613-3.25732-1.01758-1.01807-1.4248-2.23975-1.4248-3.66455,2.23926-3.66455,4.88574-11.60449,4.88574-18.11914,0-4.07129-1.22168-7.73584-4.27539-9.16113.20312-.20361.40723-.40723.81445-.40723s.81445,0,1.22168-.20361c-1.01855-.61084-1.62891-1.83203-1.83301-3.25732-.20312-1.4248-.81348-2.8501-1.62793-3.86816l.61035-1.62842c.2041-.61084.61133-.81445,1.4248-.61084-.20312-1.01807-.20312-2.23926-.20312-3.25732,0-8.14307,5.49707-14.4541,9.56836-20.96875,1.01758-.20361,1.62891,0,1.83203.40674.2041.40723.61133.40723,1.22168-.20312,3.25781-2.44336,4.47852-5.29346,4.47852-9.16162,3.86816-10.99316,10.58691-23.00488,19.13672-26.66943,5.08984-4.47852,14.25098-7.32861,22.59766-7.32861,2.64648,0,5.29395.20361,7.3291.81396.61133.20361,1.01855.20361,1.22168-.40674,0-.40723.2041-.61084.61133-.61084,11.19629,1.22119,19.9502,4.27539,26.05859,9.56836,6.10742,9.56836,12.01074,21.57959,12.01074,33.99805,0,5.08984-1.01758,9.97559-3.05371,15.06543-15.47266,19.13672-47.23145,22.59766-71.66113,27.4834l.2041,6.10742c0,11.19727-1.62891,23.2085-8.55078,32.37012-2.03613,0-4.47852.20312-6.92188.81396l-6.31152,1.62891-2.44238-1.62891c-.81445-.40723-1.62891-.61084-3.05371-.81396ZM357.75093,142.3624c3.05371-.20361,6.31152-1.01807,9.36523-2.44336,3.46094-1.4248,6.92188-2.64648,10.79004-3.66455,3.66406-.81396,6.71777-2.23926,9.36426-4.68213-3.66406-3.46094-11.60449-6.10742-19.74707-6.10742-6.31152,0-12.62207,1.62842-17.50879,5.90381-1.62793,4.68213-2.44238,6.71826-4.07129,10.79004.20312.61035.81445,1.22119,1.22168,1.4248.61035.20361,1.01758.81445,1.22168,1.42529,3.05371-1.42529,6.31055-2.44336,9.36426-2.64648Z"/>
        <path class="cls-1" d="M445.49312,217.48398c-1.83203.20361-3.46094.40723-5.08984.40723-16.28613,0-27.28027-11.40039-32.57324-24.6333-.40723-2.8501-.61035-5.7002-.61035-8.34717,0-25.85498,17.71094-42.75195,29.51953-57.00293,3.46094,1.22168,3.05371-3.46094,6.31055-4.07178.81445-2.03564,2.23926-3.66455,4.07227-4.68213,1.83203-1.01807,3.25684-2.23975,4.27441-4.07178,5.08984-1.22168,5.70117-5.08984,10.17969-6.10742v-2.23975c4.88574-2.23926,6.31055-4.88574,9.36426-8.75391l3.05371-.20361c.61133,0,1.83301-.20361,3.25781-.40723,2.03613-3.86816,3.25684-4.88574,6.71777-7.125,1.62891.81396,3.25781,1.4248,5.29395,1.62842,1.83203.20361,3.66406,1.01807,5.08887,2.44287.40723,5.49707,6.10742,5.29346,7.12598,9.77197.61035.20361,1.01758,0,1.22168-.20361,0-.20361.20312-.40723.81348-.20361.40723,1.83252.81445,3.05371,1.42578,3.66455.61035.61084,1.01758,1.83252,1.62793,3.46094-.61035,1.42529-1.2207,2.64648-1.4248,4.07178-.40723,1.42529-1.22168,2.64648-2.44238,3.25732-.2041.81445,0,1.22168.61035,1.22168.61035.20312,1.01758.61035,1.22168,1.22119v.61084c0,1.01807-.2041,1.62891-.61133,2.03564,3.25781,5.08984,6.10742,10.58643,8.55078,16.28662,2.64648,5.70068,5.49707,11.40088,8.55078,16.49023-.61133,6.71826,5.08887,13.43652,5.08887,20.56201s-3.25684,16.08301-7.93945,18.52588c-1.83203,2.44336-4.27539,4.27539-6.92188,5.70068-2.44238,1.4248-5.08984,2.8501-7.3291,4.68213-2.84961,1.83252-6.51465,2.44287-10.17871,3.25732-6.51465,3.25732-16.49023,7.3291-23.41211,6.71826-5.08984,2.03564-9.97559,3.05371-15.26855,3.05371-3.05371,0-5.9043-.20361-9.56836-1.01807ZM469.31245,186.74325c5.7002-1.22168,10.38281-3.05371,14.4541-5.29297l12.41895-6.51465c.61035-1.42529,1.2207-2.64697,2.23926-3.66455.81445-1.01807,1.22168-2.23975,1.4248-4.07178-1.4248-2.23926-1.4248-2.8501-1.4248-5.49658-3.05371-4.07178-5.29395-8.55078-7.5332-13.23291-2.23926-4.68262-4.68164-8.95801-7.125-13.23291-.61035,1.01758-2.03613,2.8501-3.66504,1.22119-.61035,2.23975-2.03516,3.05371-3.45996,3.05371-1.62891,0-3.46094-.81396-4.88672-2.03564l-11.40039,8.95752c-3.86816,3.05371-7.53223,6.31104-10.38281,10.1792-.61035.20361-.81445.40723-1.01758.20361-.2041,0-.61133.20361-1.22168.40723-4.47852,10.79004-13.23242,15.26855-13.84375,28.29785,3.46094,2.64648,7.93945,3.66455,12.82617,3.66455,7.73535,0,16.49023-2.44287,22.59766-2.44287Z"/>
        <path class="cls-1" d="M531.24214,192.23984c.20312-.81445.40723-1.83203.40723-2.64648,0-2.03564-.61133-3.66455-1.62891-5.08936l21.37598-44.17773c7.73633-15.67578,14.86133-30.94434,21.7832-46.41699,12.01172,4.68262,24.63379,11.80811,26.87305,24.8374-.20312.81396-.61035,1.01758-.81445.81396-.40723-.20312-.81445,0-1.01758.40723.61035.81445.81445,1.22168.81445,1.62891s-.2041.61084-.2041,1.01807c0,.61035.2041,1.22119.81445,2.64648-.61035-.20361-.81445,0-1.01758.20361-.2041.20361-.81445.20361-1.4248,0,.40723,1.01758.61035,1.83203.61035,2.64648,0,2.8501-1.83203,4.27539-1.83203,7.12549,0,.40723,0,1.01758.20312,1.83203-1.4248,0-1.4248,2.03564-2.84961,1.62891.40723,2.44287.40723,4.88574.40723,7.32861l-.40723,14.45459c0,4.88574.40723,9.77197,1.62793,15.26855,19.74805-11.604,21.58008-38.47705,25.44824-62.09277,4.27539-4.2749,5.08984-14.86133,8.14355-20.96875,8.34668,1.22119,9.56836,8.95752,17.71191,10.1792,3.05371,4.68213,6.10742,8.55029,6.92188,13.43652-2.64746,4.07129-1.83301,10.58594-6.92188,14.04688-1.62891,13.23291-5.9043,22.80127-5.29395,36.44141-2.03516,6.10742-4.68164,13.43652-6.10742,19.13672-2.23926,1.62891-3.86816,3.66455-4.88574,6.10742l-3.86816,7.12549c-.61035.61084-.81445.61084-1.01758.40723-.2041-.20361-.61133-.40723-1.4248-.61084,0,.40723.20312.61084.20312.81445,0,1.62842-1.83203.81445-.81445,3.46094-5.7002,2.44287-8.75391,9.77197-17.30469,9.77197-1.83203,0-4.47852-.40723-7.3291-1.42529-10.78906-7.93945-19.13672-17.71143-24.63281-32.16602-4.47949,1.01807-3.66504,10.38281-7.5332,10.38281-.40723,3.25732-3.86719,5.29297-3.86719,9.16113,0,.81445,0,1.62891.40625,2.44287-4.68164,3.25732-.40625,12.62256-8.95703,12.01172-.40723.61084-.40723.81396-.2041,1.01758.2041.20361.40723.61084.61133,1.42529-.61133,0-1.01855-.20361-1.42578-.20361-.81348,0-1.4248.20361-1.83203.40723-.81445.61084-1.83203.81445-2.84961,1.01807-9.56836-3.05371-13.2334-17.71191-16.89746-24.8374Z"/>
        <path class="cls-1" d="M661.6562,211.37656c-1.01758-1.01758-1.83203-2.03564-2.03516-3.46094-.40723-1.22119-1.4248-2.23926-2.85059-2.8501-.40723-5.7002-2.84961-14.4541-2.84961-21.37598,0-1.42529.20312-2.8501.40723-4.07178.40723-2.03564,1.2207-3.66455,2.44238-5.29297,1.22168-1.62891,1.62891-3.46094,1.22168-5.29346.61035,0,1.01758-.40723,1.22168-1.01758.20312-.61084.61035-.81445,1.62891-.61084,3.66406-10.99365,7.53223-15.47217,11.40039-25.85498-7.3291-6.71826-6.10742-16.49023-8.34668-24.8374,5.49609-8.34668,17.10059-9.56836,26.66895-11.80762,23.20801-7.53271,29.31641-5.49658,54.15332-10.38281,1.22168,1.22168,2.44238,1.83252,3.46094,1.83252.61035-1.22168,1.22168-1.62891,1.83203-1.22168.61035.61084,1.01758.20361.81445-1.01807,2.64648,4.68262,7.125,7.3291,12.01074,9.56836.40723,2.64697-.20312,3.05371-.20312,4.479,0,.61084,0,1.22168.40723,2.23926-10.99316,17.91553-30.12988,9.56836-47.63867,20.3584-.81445-.40723-1.62891-.61084-2.44238-.61084-.81445,0-1.62891.20361-2.24023.61084-1.4248.61084-3.66406.81445-6.10742.61084-.81348.81445-1.83203,1.4248-3.05371,1.62842l-3.46094,1.22168c.40723.81445.61133,2.03564.61133,3.05371,0,1.62891,0,2.8501.40723,3.66455,2.03516.20361,4.07129.20361,6.31055.20361,2.85059,0,5.9043,0,9.36523-.40723,5.49707-.61084,10.99316-.81445,16.49023-1.01807.20312.61084,0,1.01807-.2041,1.22168-.20312.20361-.40723.61084-.20312,1.22168,4.68262,3.25732,6.71777,8.95752,11.80762,8.34668.61035,1.42529,1.22168,2.64648,1.22168,4.27539,0,1.01758-.2041,2.03564-.61133,3.05371-8.75391,5.90381-16.69336,12.82568-28.9082,12.21484h-1.4248c-.40723,0-.81445-.20361-1.42578-.61084-1.01758.61084-2.64648.81445-4.47852.61084-.40723,0-1.01758-.20361-1.4248-.20361-1.22168,0-2.23926.40723-3.05371.81445-1.42578-.61084-3.05371-1.01807-4.68262-1.01807-2.23926,0-4.27539,0-6.10742-.61084-4.07227,5.70068-7.73633,12.01172-10.17969,19.13672,3.66504.61084,7.12598.81445,9.97559.81445,9.97559,0,16.28711-2.44287,28.29883-2.03564,2.64648-1.22168,5.7002-2.23975,9.56836-2.8501,3.46094-.40723,6.92188-1.22168,9.97559-2.23975,4.07129,1.62891,5.49609,8.55078,10.17871,7.93994,2.03613,2.03564,1.01758,6.71826,4.07129,6.10742-7.93945,17.5083-21.17188,16.89746-40.10547,20.56201-1.22168.20361-2.23926.20361-3.05371-.20361-.81445-.20361-1.83203-.40723-2.85059-.40723-5.49609,1.22168-13.63965,2.44287-21.7832,2.44287-9.36426,0-18.93262-1.62842-24.22656-6.92188Z"/>
        <path class="cls-1" d="M758.05366,192.23984c.20312-.81445.40723-1.83203.40723-2.64648,0-2.03564-.61133-3.66455-1.62891-5.08936l21.37598-44.17773c7.73633-15.67578,14.86133-30.94434,21.7832-46.41699,12.01172,4.68262,24.63379,11.80811,26.87305,24.8374-.20312.81396-.61035,1.01758-.81445.81396-.40723-.20312-.81445,0-1.01758.40723.61035.81445.81445,1.22168.81445,1.62891s-.2041.61084-.2041,1.01807c0,.61035.2041,1.22119.81445,2.64648-.61035-.20361-.81445,0-1.01758.20361-.2041.20361-.81445.20361-1.4248,0,.40723,1.01758.61035,1.83203.61035,2.64648,0,2.8501-1.83203,4.27539-1.83203,7.12549,0,.40723,0,1.01758.20312,1.83203-1.4248,0-1.4248,2.03564-2.84961,1.62891.40723,2.44287.40723,4.88574.40723,7.32861l-.40723,14.45459c0,4.88574.40723,9.77197,1.62891,15.26855,19.74707-11.604,21.5791-38.47705,25.44727-62.09277,4.27539-4.2749,5.08984-14.86133,8.14355-20.96875,8.34668,1.22119,9.56836,8.95752,17.71191,10.1792,3.05371,4.68213,6.10742,8.55029,6.92188,13.43652-2.64746,4.07129-1.83301,10.58594-6.92188,14.04688-1.62891,13.23291-5.9043,22.80127-5.29395,36.44141-2.03516,6.10742-4.68164,13.43652-6.10742,19.13672-2.23926,1.62891-3.86816,3.66455-4.88574,6.10742l-3.86816,7.12549c-.61035.61084-.81445.61084-1.01758.40723-.2041-.20361-.61133-.40723-1.4248-.61084,0,.40723.20312.61084.20312.81445,0,1.62842-1.83203.81445-.81445,3.46094-5.7002,2.44287-8.75391,9.77197-17.30469,9.77197-1.83203,0-4.47852-.40723-7.3291-1.42529-10.78906-7.93945-19.13672-17.71143-24.63281-32.16602-4.47949,1.01807-3.66504,10.38281-7.5332,10.38281-.40723,3.25732-3.86816,5.29297-3.86816,9.16113,0,.81445,0,1.62891.40723,2.44287-4.68164,3.25732-.40723,12.62256-8.95703,12.01172-.40723.61084-.40723.81396-.2041,1.01758.2041.20361.40723.61084.61133,1.42529-.61133,0-1.01855-.20361-1.42578-.20361-.81348,0-1.4248.20361-1.83203.40723-.81445.61084-1.83203.81445-2.84961,1.01807-9.56836-3.05371-13.2334-17.71191-16.89746-24.8374Z"/>
        <path class="cls-1" d="M919.61616,218.70566c-2.03613-.81445-3.25781-1.01807-4.27539-2.64648l-4.27539-2.03564-1.62891-1.01807v-2.23975c-1.83203-2.44287-2.64648-5.49658-3.25684-8.34668-.61035-2.44287-1.22168-4.68262-2.23926-6.31104-.61133-15.26855,3.86816-25.04053,7.53223-34.8125,2.23926-5.29346,4.47852-10.58643,6.10742-16.49023l1.62891-1.83252,2.44336-5.49658,1.83203-4.07178,1.22168-2.8501.81348-2.23926c-1.62793,0-2.84961.20361-4.27441.40723-1.62891.20361-2.85059.40723-4.07227.40723-1.01758,0-1.62793,0-2.03516-.20361-1.42578.61035-3.05371,1.01758-4.88672,1.01758h-1.83203l-1.01758-.20361h-1.01855c-1.4248,0-2.44238.20361-3.25684.61084h-7.53223l-1.01855.20361c-1.83203,0-3.86816-.20361-6.31055-1.62842-1.62891-2.23975-2.64648-3.05371-3.25781-3.25732l-1.62891-2.44336c-.20312-.81396-.40723-1.62842-.61035-2.44287l-.81445-2.44287c-1.01758-2.44287-2.23926-5.49658-2.23926-9.56836.20312-1.01807.40723-1.83252.81445-2.44287l1.01758-1.42529.61133-3.05371,2.44238.20361h5.7002c8.55078,0,17.10156-.81445,26.46582-1.42529l16.49023-1.62842,1.62891-3.46094,1.83203-1.01807c4.88672-.20361,6.31152,1.62891,7.5332,3.05371,5.90332-.61084,11.80762-1.22119,17.91504-2.23926,8.95703-1.42529,18.32227-2.64648,26.87305-2.64648,3.86816,0,7.125.20361,10.17871.81396l2.03613,1.42529c.81445,1.62891,2.23926,2.8501,3.86816,4.27539,3.25684,2.8501,7.3291,6.10742,6.51465,13.84326-.81445,1.62891-1.62891,2.64697-2.23926,2.85059l-1.83301,2.23926h-2.03516c-1.62891,0-2.85059.20361-4.07227.81445-1.01758.61035-2.03516,1.01758-3.46094,1.22119l-2.84961-.20361h-2.23926c-6.71875,0-14.8623,1.22168-22.19043,2.23975-5.29395.81396-10.38281,1.4248-14.25098,1.62842-1.83203,5.7002-3.66504,10.1792-5.7002,14.25098-2.24023,4.68213-3.86816,8.95752-5.49707,14.25049-2.44336,4.27539-4.27539,7.53271-5.29297,12.01172-3.25781,4.07178-4.68262,8.75391-5.29297,12.01123l-.81445,2.23926c-.81445.81445-1.22168,1.42529-1.42578,1.83252-.20312.61084-.40723,1.01807-1.01758,1.4248-.20312,1.42529-.61035,3.05371-1.4248,4.27539-.61133,1.42529-.81445,2.64648-.81445,3.25732,0,1.42529-.40723,2.23926-1.01758,2.64648v1.01807c0,1.01807-.2041,2.03564-.40723,3.05371-.40723,1.62842-.61133,2.8501-.40723,3.86816l1.22168,1.4248c.20312.40723.40625,1.01807.61035,1.42529.81445.61084,1.4248.81445,1.83203,1.01807.61133.40674,1.4248.81396,2.44336,1.4248l1.62793,2.03613c.2041,1.01758.2041,2.03564.2041,2.8501,0,2.44287-.40723,4.68213-1.83203,6.31104-2.03613,2.64648-5.49707,3.66455-10.17969,3.66455h-2.44238c-.61133-.40723-1.01855-1.01807-1.22168-1.42529Z"/>
        <path class="cls-1" d="M1007.23628,217.68759c-4.88672-6.71826-8.95801-23.81885-10.79004-32.16602,2.23926-5.7002,1.62891-18.32227,2.23926-24.6333,1.01758-5.49658,2.44336-10.79004,4.27539-15.87939,1.83203-4.88623,3.25684-10.1792,4.07129-15.67578,0-.40723.2041-.81445.2041-1.22168,0-.81445-.2041-1.62891-.40723-2.03613-.40723-1.01758-.40723-2.03564-.40723-3.05371.20312-.61035.61035-1.01758,1.22168-1.22119.61035-.20361,1.01758-.61084,1.2207-1.22168.40723-1.4248.61133-2.44287.40723-3.46094-.20312-.20361-.20312-.40723-.20312-.61084,0-.81396.20312-1.83203.81445-2.8501,1.4248-2.23926,4.27539-6.51465,3.66406-11.19678,4.47852-2.8501,7.93945-8.95801,15.47266-8.95801,3.86816,5.08984,1.62891,13.84375,7.93945,16.89746,0,2.44336-1.01758,13.84375,3.46094,15.47266-7.73633,19.74707-14.4541,39.90186-14.4541,60.26025,0,5.29297.40723,10.38281,1.4248,15.67578.20312,1.22168.40723,2.44287.40723,3.66455,0,9.77197-7.53223,12.62207-15.06543,12.62207-1.83203,0-3.66406-.20361-5.49609-.40723Z"/>
        <path class="cls-1" d="M1123.86714,217.07724l-2.03613-1.22168-2.03516-1.22168-2.24023-1.01758.61133-2.44336c.20312-.40723.20312-.81396.20312-1.22119,0-1.22168-.61035-2.23975-2.64648-3.86816l-1.22168-1.22168-1.01758-1.22119-3.46094-3.66455,5.49707-1.42529c6.51465-1.83203,8.5498-4.07129,7.93945-10.99316-1.4248-.20361-2.85059-.40723-4.07129-.40723-3.05371,0-5.29297.81445-8.14355,1.62842-4.68262,1.42529-9.56836,2.44287-15.26855,2.44287-2.23926,0-3.66504-.20312-5.9043-.40674l-2.03516-.40723c-.2041-1.42529-.61133-2.44287-.81445-2.64648l-.81445-.61084c-1.42578-1.22168-3.25781-3.46094-2.44336-6.92188-.61035-1.22168-1.01758-2.44287-1.22168-3.46094-.81445,1.4248-1.4248,3.05371-1.83203,4.88574l-.81445,2.03613-2.03516.40723c-.61133.20361-.81445,1.4248-.81445,1.83203l-1.01855,3.46094-.81445.61084-.61035.81445c-.61035,2.44287-1.4248,4.68213-2.23926,6.92139-1.4248,3.46094-2.44336,6.71826-2.23926,9.97559l-.81445,2.23975c-1.4248,1.4248-2.85059,2.23926-4.47852,3.05371-.2041.20361-.61133.40723-1.01855.61084l-1.22168.61035-.61035,2.23975-2.44336.40723-2.84961.61035c-.61133.20361-1.42578.20361-2.23926.20361l-2.03613-.20361-3.25781-3.05371c-.81348-.61035-1.83203-1.4248-2.84961-2.03564-1.22168-1.42529-1.83203-2.64648-2.03613-3.46094l-.40723-2.23926c-.20312-.81445-.40723-1.42529-.40723-2.03613-.20312-.61035-.40723-1.01758-.61035-1.22119l-2.44336-2.23975,2.03613-1.83203.20312-3.46094c5.49707-13.43652,11.40137-25.65137,17.71191-38.47705l3.25781-6.31104,3.05371-6.51465c-.2041-.40723-.2041-.81445-.2041-1.22168,0-.61084.2041-1.22119.2041-1.83203,3.05371-4.68262,4.68262-7.73633,6.51465-11.60449,2.03516-4.47852,4.07129-8.55029,7.53223-13.0293l3.05371-1.4248,1.4248-.61084c.61133-.20361,1.22168-.20361,1.83301-.20361l3.05371.40723c7.3291-3.46094,12.41797-9.77197,18.32227-18.52588l1.83203-2.85059,2.64648,1.62891c.61133.40723,1.62891.81445,2.85059,1.01807l3.66406,1.22119c4.88574,1.01807,9.36523,2.23975,12.01172,4.68262.81445,2.23926,1.22168,3.86816,1.4248,4.88574l.61035,3.05371c.81445,4.68262,1.42578,8.75439,1.62891,14.45459,1.42578,4.479,2.23926,8.75391,3.05371,13.23291,1.42578,6.31104,2.44336,12.41846,4.68262,17.71143.81445,0,1.62891,0,1.83203.20361,1.42578-.61035,2.85059-.81396,4.68262-1.01758l2.23926-.20361.61133,2.03564c.20312.61084.81445,1.42529,2.03516,2.03564,3.46094.20361,4.68262,1.62891,5.9043,2.85059.61035.61035,1.01758,1.01758,1.62891,1.22119l3.05371,1.22168-1.62891,3.05371c-2.64648,4.68213-7.73633,9.36475-13.84375,12.21484l.40723,2.23975c0,.81396.20312,1.62842.40723,2.44287.81445,4.47852,1.4248,9.36475,1.01758,14.25049l-.40723.81445c-3.25684,9.16113-12.41797,18.93311-23.81836,19.54395-1.62891-.40723-2.64746-.81445-3.25781-1.4248ZM1093.33003,164.55283c7.93945-.61084,13.84375-1.01807,21.7832-2.64648-1.83203-7.93994-4.07227-16.69385-6.31152-25.24463l-1.22168,2.03613c-5.49609,5.49658-10.58594,13.0293-14.04688,19.13672-1.4248,2.44287-3.05371,4.68213-4.47852,7.12549l2.44238-.20361c.61133,0,1.22168,0,1.83301-.20361Z"/>
        <path class="cls-1" d="M1175.67866,213.81991c-.61133-1.42529-1.22168-2.44336-1.83301-2.85059-.81348-1.01758-1.62793-2.03564-1.83203-4.2749-4.07129-4.88623-5.90332-12.21484-5.90332-18.93311,0-3.66455.61035-7.3291,1.4248-10.38281.20312-.61084.40723-1.01807.61035-1.62891l.2041-1.83203c.81445-4.27539,1.83203-8.34717,4.07129-11.40088-.20312-.61035-.40723-1.22119-.40723-1.83203,0-1.83252,1.22168-4.27539,2.23926-6.10742l4.68262-12.82568,3.86816-10.38281c4.47852-12.01123,8.55078-23.00488,11.60449-36.64502l2.44238-1.4248,2.03613-.61084c4.68262,2.44287,12.01172,5.29297,16.28711,5.29297,1.01758.61084,1.83203,1.22168,2.03516,1.42529l.81445,1.01758c2.85059,3.25732,5.49707,6.51465,4.68262,12.21533-.81445,1.22119-1.4248,1.83203-1.83203,1.83203-1.4248,5.29297-2.64648,8.55029-4.27539,12.21484-1.83203,4.07178-3.66504,7.73633-4.68262,13.43652-.61035.61084-.81445,1.22168-1.01758,1.83252l-.61133,1.62842c-.61035,1.42529-1.01758,3.05371-2.44238,4.07178-.81445,6.92188-2.85059,10.58643-4.68262,14.65771-3.05371,7.73633-5.9043,15.06543-6.51465,24.63379.61035-.20361,1.4248-.40723,2.03613-.40723h1.62793c1.22168,0,2.44336.20361,4.07227.61084,7.93945-4.07178,17.71191-4.27539,27.07617-4.479h5.49707c1.83203,0,3.66406-.20361,5.29297-.40723,2.03613,1.22168,2.44336,1.22168,3.05371,1.22168,1.22168,0,2.23926,0,3.05371.20361,3.25781,2.8501,5.9043,3.86816,9.16113,4.88574,3.05371,1.01807,5.7002,2.03613,8.34668,4.27539l1.42578,8.55029c1.01758,1.22168,1.4248,1.83252,1.2207,2.23975,0,1.01758-.20312,1.83203-.81348,2.44287l.40723,2.23926c-4.07227.81445-4.88672,1.83252-6.31152,3.05371l-2.03613.20361h-1.4248c-1.83203,0-4.27539.40723-6.71777,1.01807-3.66504-1.22168-7.3291-1.62891-11.19727-1.62891-3.05371,0-6.10742.40723-9.36523.40723-3.25684.61084-6.51465.81445-9.97559.81445l-4.47852,1.22168c-7.3291,2.44287-16.49023,5.49658-25.24414,5.49658-6.51465,0-12.01172-1.62891-15.67578-5.08936Z"/>
        <path class="cls-1" d="M107.9355,486.66708c-2.00977,0-3.68457.33496-6.03027.66992-3.68457-3.68506-6.7002-6.7002-8.375-11.39014-1.00488-.33496-1.33984-.66992-1.33984-2.01025,0-1.33984,0-2.00977-1.33984-2.00977,0-1.00537,0-1.67529.33496-2.01025l.66992-1.33984c.33496-.66992.66992-1.00537.66992-1.34033,0-1.33984-3.34961-2.00977-2.67969-4.02002,1.00488-1.6748,1.33984-3.68506,1.33984-6.02979,0-4.02051-1.33984-8.37549-1.33984-12.39551,0-4.35498,1.33984-8.375,6.36523-11.05518,2.67969.33496,5.35938.33496,8.04004.33496,32.16016,0,58.62598-18.76025,79.06152-28.81055,3.01465-9.71533,11.72461-10.38525,14.74023-20.77051v-1.00488c0-2.68018-3.01562-2.01025-3.01562-5.0249l-1.6748-.67041c-.66992-.33496-1.33984-.33496-1.6748-.33496-5.36035-3.01514-11.72559-5.35986-17.75586-7.37012-6.36523-2.00977-12.05957-4.35498-16.08008-6.36523-1.6748,1.34033-3.68457,1.34033-5.36035,1.34033h-2.67969l-9.37988-2.68018c-18.42578-1.00488-34.50586-3.01514-49.58105-9.71533-1.00488-2.34473-1.33984-5.0249-6.36523-4.02002l-4.69043-6.36523c-1.6748-1.6748-3.01465-4.02002-4.35449-6.02979.66992-3.3501,1.33984-6.03027,1.33984-8.37549,0-2.34473-.66992-4.35498-2.3457-6.36475l2.3457-8.37549c.33496-2.00977.33496-4.35498,0-8.04004,7.37012-21.77539,32.83008-30.48584,51.92578-36.18066,0-1.00488-.33496-1.33984-1.33984-1.33984s-1.00488-.33545-.66992-1.34033c34.1709-6.36523,72.02637-26.80029,115.24219-26.80029,11.72559,0,23.78516,1.33984,36.18066,5.0249,4.02051,11.7251,14.07031,19.09521,15.0752,28.14062,4.35547,4.02002,8.04004,8.04004,8.04004,14.07031,0,1.33984-.33496,3.01514-.66992,4.68994-5.02539,3.68506-10.38477,7.03516-15.74512,10.05029-8.375-2.01025-16.75-2.68018-24.79102-2.68018-11.38965,0-22.11035,1.34033-31.15527,2.34521-2.67969-2.68018-6.03027-3.68506-9.71484-3.68506-9.71582,0-22.11035,6.36523-29.48047,5.35986-5.02539,4.35547-13.40039,5.36035-22.11133,6.36523-.33496.66992,0,1.67529.6709,2.01025.66992.33496.66992,1.33984.33496,2.67969,6.0293,8.04053,23.11523,4.02051,25.79492,14.74072,15.74512,1.00488,23.45117,17.08496,22.78027,26.13037.6709,2.34521,1.67578,3.01514,2.68066,2.68018h.66992c.66992,0,1.6748.33496,2.67969,1.6748,1.00488,3.3501,3.01562,6.36523,6.36523,10.05029,2.68066,3.68506,5.36035,7.70508,7.03516,11.7251.33496,6.7002,1.33984,12.39551,1.33984,18.09033,0,5.36035-.66992,10.05029-3.01465,15.07568-14.74023,38.52539-58.96094,60.63574-96.81738,71.69141-1.00488-.33545-2.00977-.33545-3.01465,0-1.00488.33496-1.33984-.33545-1.00488-2.01025-3.01562,3.01514-7.37012,4.02002-11.72559,4.02002-4.35449,0-9.04492-1.00488-14.40527-1.00488Z"/>
        <path class="cls-1" d="M315.06245,481.30673c-1.00488-3.68506-4.02051-4.68994-6.36523-4.68994-7.70508-3.3501-10.0498-10.72021-13.73535-18.42529-2.34473-5.02539-4.35449-9.04541-7.03516-13.06543l5.69531-1.6748-7.37012-8.04004c0-.67041-.66992-1.00537-1.33984-1.67529-.66992-.33496-1.33984-1.00488-1.6748-1.6748l-.33594-5.36035c-.66992-11.39014-1.00488-22.11035-1.00488-32.49561,0-16.08057,1.34082-30.15039,5.02539-42.5459v-3.3501l2.00977-12.06006,1.67578-9.04541c.66992-4.68994,1.6748-9.04492,3.01465-13.40039,6.36523-1.33984,8.375-5.69482,10.71973-8.70996,6.36523-.33496,7.37109,1.67529,9.71582,6.36523,2.00977,4.02002,4.69043,9.71533,11.38965,12.06006.33496,1.67529,1.00586,3.68506,2.01074,5.36035l2.00977,6.36475c3.68555,7.37061,7.03516,15.74561,7.37012,23.11572-5.36035,9.71533-7.70508,24.12061-7.70508,36.85059,0,9.04541,1.00488,17.42041,3.34961,23.11572l2.01074,4.02002,5.69434-.66992c28.14062-7.37012,40.20117-15.41064,58.62695-36.18066,19.76465-21.44043,26.7998-54.94141,28.14062-77.38672,3.68457-1.33984,5.69434-4.02002,5.69434-8.04004l-.66992-3.68506c-1.00488-1.34033-1.00488-2.68018,0-4.35547,1.34082-4.35498,4.35547-7.37012,9.0459-9.71484,7.03516,4.35498,12.39453,10.0498,17.08496,15.0752,1.00488,9.71533,3.34961,16.08008,6.03027,22.78027,2.34473,6.03027,4.01953,11.39014,5.02539,19.43066-1.67578,5.69482-2.68066,11.05518-3.35059,15.74512l-2.67969,15.0752c-3.68555,7.70508-7.03516,14.40527-10.05078,20.43555l-8.04004,15.41016c-1.00488.67041-2.00977,2.01025-2.67969,3.3501l-2.68066,4.69043-1.33984,3.01465c-.66992,1.34033-1.33984,2.34521-1.6748,2.68018l-6.7002-2.34473-1.33984,8.04004-4.35547,1.33984-3.34961,4.02002c-16.75098,28.81055-34.84082,36.18066-73.03125,52.59619l-9.38086-1.00488-8.04004-.33496c-4.01953,0-9.04492-.33496-15.41016-1.00537Z"/>
        <path class="cls-1" d="M478.07026,488.67685c-8.375-9.04492-14.74023-28.81055-14.74023-46.23096,0-7.03467,1.00488-13.06494,3.35059-18.42529,0-.33496,5.69434-15.74512,18.4248-44.55566,11.39062-26.13037,22.44531-48.91113,28.47559-57.95605l9.0459-14.07031c7.70508-13.40039,13.06445-22.4458,27.13477-27.4707,4.69043,1.6748,8.04004,4.02002,10.38574,6.7002l.66992,3.68506c1.00488,2.34521,2.34473,3.3501,4.01953,3.3501l6.03027,1.33984,5.36035,1.67529c1.6748,1.6748,3.01465,4.02002,4.02051,6.36475,5.69434,8.04053,11.05469,15.41064,11.05469,23.45068,0,2.34521-.66992,5.0249-1.6748,7.70508l.33496,3.01514c.66992,1.33984,1.00488,2.68018,1.00488,4.68994,0,1.00537,0,2.34521-.33496,3.68506l-.33496,4.69043c0,1.33984.33496,3.3501.66992,5.35986,3.68555,3.01514,7.37012,4.68994,10.38574,4.68994,7.03516,0,12.72949-4.02002,18.08984-7.70508,3.35059-2.34473,6.7002-4.68994,10.38574-5.0249,7.70508-7.70508,13.73438-12.73047,20.43457-18.42529,13.40039-10.38525,26.46582-21.44043,33.83594-39.86572,2.34473-1.34033,4.69043-2.01025,7.03516-2.01025,4.69043,0,10.05078,2.68018,14.74023,5.0249l2.00977,1.00537,1.34082.66992c0,2.00977,1.00488,3.68506,2.67969,5.35986l1.6748,1.34033,1.00488.66992c3.35059,1.6748,5.36035,3.68506,6.03027,5.36035,1.6748,4.68994,4.35547,8.70996,8.375,11.39014-.33496,1.00488-.33496,1.6748-.33496,2.67969,0,3.01514,1.34082,6.03027,2.68066,9.04541.33496,1.33984.66992,2.68018,1.6748,4.35498l-6.36523-.66992,1.00488,6.03027c1.00488,6.36475-1.6748,14.74023-4.35449,19.09521l.33496,14.07031c0,9.04492-1.00586,14.40527-5.02539,23.45068,1.33984,27.80518-8.70996,50.58594-17.41992,70.35107l-1.34082,3.3501-1.6748,3.3501c-4.01953,1.33984-6.36523,3.01514-10.0498,4.35498-4.35547,2.34521-7.70508,4.35547-12.39551,4.35547-9.04492-6.36523-13.40039-18.76074-13.40039-35.51074,0-15.41064,3.35059-34.50586,10.0498-57.28613,1.00586-.67041,1.67578-2.01025,1.67578-4.02051l-3.01562-3.3501c-1.6748,0-3.34961,0-4.35449,2.68018-23.11621,17.08545-55.27637,38.19092-84.08691,38.19092-18.09082,0-31.82617-9.04541-41.20605-27.80566l-2.67969-4.68994-2.3457,4.02002c-2.00977,2.68018-12.39453,24.45557-11.72461,34.84082-3.68555,4.02002-8.70996,9.04492-11.05566,15.74512,0,.66992-.33496,1.33984-.33496,1.67529,0,1.33984.33496,2.34473,1.00488,3.01465-.33496,2.01025-1.33984,3.68506-3.01465,4.69043l-2.34473,3.01514c-1.00586,1.00488-2.01074,2.34473-2.68066,3.3501-.33496,1.00488-.66992,2.00977-.66992,3.01465l-.66992,3.3501c0,1.67529-.33496,3.01514-.66992,4.35547-3.68555,7.37012-6.7002,12.39502-8.70996,14.74023-2.3457,2.34473-5.36035,3.68506-9.0459,3.68506-1.6748,0-4.35449-.33496-8.375-1.00537Z"/>
        <path class="cls-1" d="M752.90229,488.67685c-8.375-9.04492-14.74023-28.81055-14.74023-46.23096,0-7.03467,1.00488-13.06494,3.35059-18.42529,0-.33496,5.69434-15.74512,18.4248-44.55566,11.39062-26.13037,22.44531-48.91113,28.47559-57.95605l9.0459-14.07031c7.70508-13.40039,13.06445-22.4458,27.13477-27.4707,4.69043,1.6748,8.04004,4.02002,10.38574,6.7002l.66992,3.68506c1.00488,2.34521,2.34473,3.3501,4.01953,3.3501l6.03027,1.33984,5.36035,1.67529c1.6748,1.6748,3.01465,4.02002,4.02051,6.36475,5.69434,8.04053,11.05469,15.41064,11.05469,23.45068,0,2.34521-.66992,5.0249-1.6748,7.70508l.33496,3.01514c.66992,1.33984,1.00488,2.68018,1.00488,4.68994,0,1.00537,0,2.34521-.33496,3.68506l-.33496,4.69043c0,1.33984.33496,3.3501.66992,5.35986,3.68555,3.01514,7.37012,4.68994,10.38574,4.68994,7.03516,0,12.72949-4.02002,18.08984-7.70508,3.35059-2.34473,6.7002-4.68994,10.38574-5.0249,7.70508-7.70508,13.73438-12.73047,20.43457-18.42529,13.40039-10.38525,26.46582-21.44043,33.83594-39.86572,2.34473-1.34033,4.69043-2.01025,7.03516-2.01025,4.69043,0,10.05078,2.68018,14.74023,5.0249l2.00977,1.00537,1.34082.66992c0,2.00977,1.00488,3.68506,2.67969,5.35986l1.6748,1.34033,1.00488.66992c3.35059,1.6748,5.36035,3.68506,6.03027,5.36035,1.6748,4.68994,4.35547,8.70996,8.375,11.39014-.33496,1.00488-.33496,1.6748-.33496,2.67969,0,3.01514,1.34082,6.03027,2.68066,9.04541.33496,1.33984.66992,2.68018,1.6748,4.35498l-6.36523-.66992,1.00488,6.03027c1.00488,6.36475-1.6748,14.74023-4.35449,19.09521l.33496,14.07031c0,9.04492-1.00586,14.40527-5.02539,23.45068,1.33984,27.80518-8.70996,50.58594-17.41992,70.35107l-1.34082,3.3501-1.6748,3.3501c-4.01953,1.33984-6.36523,3.01514-10.0498,4.35498-4.35547,2.34521-7.70508,4.35547-12.39551,4.35547-9.04492-6.36523-13.40039-18.76074-13.40039-35.51074,0-15.41064,3.35059-34.50586,10.0498-57.28613,1.00586-.67041,1.67578-2.01025,1.67578-4.02051l-3.01562-3.3501c-1.6748,0-3.34961,0-4.35449,2.68018-23.11621,17.08545-55.27637,38.19092-84.08691,38.19092-18.09082,0-31.82617-9.04541-41.20605-27.80566l-2.67969-4.68994-2.3457,4.02002c-2.00977,2.68018-12.39453,24.45557-11.72461,34.84082-3.68555,4.02002-8.70996,9.04492-11.05566,15.74512,0,.66992-.33496,1.33984-.33496,1.67529,0,1.33984.33496,2.34473,1.00488,3.01465-.33496,2.01025-1.33984,3.68506-3.01465,4.69043l-2.34473,3.01514c-1.00586,1.00488-2.01074,2.34473-2.68066,3.3501-.33496,1.00488-.66992,2.00977-.66992,3.01465l-.66992,3.3501c0,1.67529-.33496,3.01514-.66992,4.35547-3.68555,7.37012-6.7002,12.39502-8.70996,14.74023-2.3457,2.34473-5.36035,3.68506-9.0459,3.68506-1.6748,0-4.35449-.33496-8.375-1.00537Z"/>
        <path class="cls-1" d="M1044.92085,487.00204c-8.04004-11.05518-14.74023-39.1958-17.75488-52.93115,3.68457-9.38037,2.67969-30.15039,3.68457-40.53564,1.6748-9.04541,4.02051-17.75537,7.03516-26.13086,3.01465-8.04004,5.36035-16.75,6.7002-25.79541,0-.66992.33496-1.33984.33496-2.00977,0-1.34033-.33496-2.68018-.66992-3.3501-.66992-1.67529-.66992-3.3501-.66992-5.02539.33496-1.00488,1.00488-1.6748,2.00977-2.00977s1.6748-1.00488,2.00977-2.01025c.6709-2.34473,1.00586-4.02002.6709-5.69482-.33594-.33496-.33594-.67041-.33594-1.00537,0-1.33984.33594-3.01514,1.34082-4.68994,2.34473-3.68506,7.03516-10.72021,6.03027-18.42529,7.37012-4.68994,13.06445-14.74023,25.45996-14.74023,6.36523,8.375,2.67969,22.78027,13.06543,27.80566,0,4.02002-1.6748,22.78027,5.69531,25.46045-12.73047,32.49561-23.78613,65.66113-23.78613,99.16162,0,8.71045.66992,17.08545,2.3457,25.7959.33496,2.00977.66992,4.02002.66992,6.02979,0,16.08057-12.39551,20.77051-24.79102,20.77051-3.01465,0-6.03027-.33496-9.04492-.66992Z"/>
        <path class="cls-1" d="M1173.123,488.67685c-3.34961-1.33984-5.36035-1.6748-7.03516-4.35498l-7.03516-3.3501-2.67969-1.6748v-3.68506c-3.01562-4.02002-4.35547-9.04541-5.36035-13.73535-1.00488-4.02002-2.00977-7.70508-3.68457-10.38525-1.00586-25.12549,6.36426-41.20605,12.39453-57.28613,3.68555-8.70996,7.37012-17.42041,10.05078-27.13574l2.67969-3.01465,4.02051-9.04541,3.01465-6.7002,2.00977-4.68994,1.34082-3.68506c-2.68066,0-4.69043.33496-7.03516.66992-2.68066.33496-4.69043.66992-6.7002.66992-1.67578,0-2.68066,0-3.35059-.33496-2.34473,1.00488-5.02539,1.67529-8.04004,1.67529h-3.01465l-1.67578-.33545h-1.6748c-2.34473,0-4.01953.33545-5.36035,1.00537h-12.39453l-1.67578.33496c-3.01465,0-6.36426-.33496-10.38477-2.68018-2.67969-3.68506-4.35547-5.0249-5.36035-5.35986l-2.67969-4.02051c-.33496-1.33984-.66992-2.67969-1.00488-4.02002l-1.33984-4.02002c-1.67578-4.02002-3.68555-9.04492-3.68555-15.74512.33496-1.67529.66992-3.01514,1.33984-4.02002l1.6748-2.34521,1.00586-5.0249,4.01953.33496h9.37988c14.07031,0,28.14062-1.34033,43.55176-2.34521l27.13477-2.68018,2.68066-5.69482,3.01465-1.67529c8.04004-.33496,10.38574,2.68018,12.39551,5.02539,9.71484-1.00537,19.43066-2.01025,29.48047-3.68506,14.74023-2.34521,30.15039-4.35547,44.2207-4.35547,6.36523,0,11.72559.33496,16.75098,1.34033l3.34961,2.34473c1.33984,2.68018,3.68555,4.69043,6.36523,7.03516,5.36035,4.69043,12.06055,10.05029,10.71973,22.78076-1.33984,2.67969-2.67969,4.35498-3.68457,4.68994l-3.01562,3.68506h-3.34961c-2.67969,0-4.69043.33496-6.7002,1.33984-1.6748,1.00537-3.34961,1.67529-5.69531,2.01025l-4.68945-.33496h-3.68555c-11.05469,0-24.45508,2.01025-36.51562,3.68506-8.70996,1.33984-17.08496,2.34521-23.4502,2.68018-3.01562,9.37988-6.03027,16.75-9.38086,23.4502-3.68457,7.70508-6.36523,14.74023-9.04492,23.45068-4.01953,7.03516-7.03516,12.39502-8.70996,19.76514-5.36035,6.7002-7.70508,14.40527-8.70996,19.76562l-1.34082,3.68506c-1.33984,1.33984-2.00977,2.34521-2.34473,3.01514-.33496,1.00488-.66992,1.6748-1.6748,2.34473-.33496,2.34521-1.00488,5.02539-2.34473,7.03516-1.00586,2.34521-1.34082,4.35547-1.34082,5.36035,0,2.34521-.66992,3.68506-1.6748,4.35498v1.67529c0,1.6748-.33496,3.3501-.66992,5.0249-.66992,2.68018-1.00488,4.68994-.66992,6.36523l2.00977,2.34473c.33496.67041.66992,1.67529,1.00488,2.34521,1.34082,1.00488,2.3457,1.33984,3.01562,1.67529,1.00488.66992,2.34473,1.33984,4.01953,2.34473l2.68066,3.3501c.33496,1.67529.33496,3.3501.33496,4.68994,0,4.02051-.66992,7.70557-3.01562,10.38525-3.34961,4.35547-9.04492,6.03027-16.75,6.03027h-4.02051c-1.00488-.66992-1.6748-1.6748-2.00977-2.34521Z"/>
      </g>
      <g>
        <g>
          <g>
            <path class="cls-1" d="M714.95824,656.60554c-.71818,0-1.30511-.24463-1.76048-.73328-.45691-.48926-.6846-1.05925-.6846-1.7118v-63.5721c0-.71664.22769-1.30326.6846-1.76048.45537-.45537,1.0423-.6846,1.76048-.6846h26.60227c8.47552,0,15.12617,1.94103,19.95193,5.81939,4.82454,3.88021,7.23758,9.37363,7.23758,16.47965,0,4.63074-1.10947,8.54238-3.32532,11.73676-2.2174,3.195-5.15143,5.60803-8.80241,7.23727l13.39927,24.05952c.19534.39129.29331.75053.29331,1.07588,0,.52254-.21259.99455-.63592,1.41788-.42456.42518-.89688.63592-1.41788.63592h-13.00798c-1.23918,0-2.15177-.30872-2.73839-.92923-.58693-.61866-1.0118-1.18865-1.27153-1.71119l-11.14952-21.51708h-9.97597v21.71242c0,.65256-.24463,1.22254-.73359,1.7118-.48895.48865-1.09252.73328-1.80916.73328h-12.61669ZM730.11768,618.56013h11.2475c3.06375,0,5.36217-.74868,6.89497-2.24975,1.53126-1.49921,2.29843-3.52097,2.29843-6.06341,0-2.54306-.73359-4.59685-2.20045-6.162-1.46717-1.56453-3.79918-2.34711-6.99294-2.34711h-11.2475v16.82226Z"/>
            <path class="cls-1" d="M780.27019,656.60554c-.71726,0-1.30511-.24463-1.75987-.73328-.45722-.48926-.68521-1.05925-.68521-1.7118v-63.5721c0-.71664.22799-1.30326.68521-1.76048.45476-.45537,1.04261-.6846,1.75987-.6846h45.6752c.71602,0,1.30265.22923,1.75987.6846.45599.45722.68521,1.04384.68521,1.76048v9.1937c0,.71787-.22923,1.30511-.68521,1.76048-.45722.4566-1.04384.6846-1.75987.6846h-31.19943v13.20331h29.04766c.71602,0,1.30265.24463,1.75987.73328.45599.48926.68521,1.09252.68521,1.80978v8.50849c0,.65256-.22923,1.22254-.68521,1.7118-.45722.48865-1.04384.73328-1.75987.73328h-29.04766v13.5946h31.98077c.71726,0,1.30388.22923,1.7611.6846.45476.45722.68398,1.04384.68398,1.76048v9.1937c0,.65256-.22923,1.22254-.68398,1.7118-.45722.48865-1.04384.73328-1.7611.73328h-46.45654Z"/>
            <path class="cls-1" d="M840.83893,656.60554c-.71787,0-1.30511-.24463-1.76048-.73328-.4566-.48926-.6846-1.05925-.6846-1.7118v-63.5721c0-.71664.22799-1.30326.6846-1.76048.45537-.45537,1.04261-.6846,1.76048-.6846h25.42964c6.38876,0,11.83412,1.02721,16.33299,3.081,4.49887,2.05379,7.95391,5.05345,10.36695,8.99775,2.41181,3.94553,3.71692,8.81905,3.91225,14.62181.06408,2.86964.09798,5.37881.09798,7.53058s-.03389,4.63013-.09798,7.43322c-.26127,6.06341-1.54974,11.08543-3.86296,15.06177-2.31568,3.97757-5.67274,6.92855-10.07425,8.85109-4.4009,1.92378-9.79696,2.88505-16.18634,2.88505h-25.91829ZM855.99899,642.52168h10.26959c2.80248,0,5.13418-.43997,6.99264-1.3199,1.85846-.88055,3.2597-2.26515,4.20556-4.15688.94463-1.8905,1.45053-4.36762,1.51585-7.43322.13002-1.88988.21074-3.58505.24463-5.0855.03204-1.49921.03204-2.99843,0-4.49887-.03389-1.49921-.11461-3.16172-.24463-4.98814-.13125-4.43294-1.28786-7.67785-3.47167-9.73164-2.18566-2.05379-5.4281-3.08038-9.73164-3.08038h-9.78032v40.29454Z"/>
            <path class="cls-1" d="M714.95824,735.47912c-.71818,0-1.30511-.24463-1.76048-.73328-.45691-.48926-.6846-1.05925-.6846-1.7118v-63.5721c0-.71664.22769-1.30326.6846-1.76048.45537-.45537,1.0423-.6846,1.76048-.6846h29.82993c5.6068,0,10.20365.78257,13.79024,2.34711,3.58505,1.56515,6.24272,3.79949,7.97085,6.69994,1.7269,2.90169,2.59204,6.34193,2.59204,10.31827,0,2.34711-.44027,4.41754-1.32052,6.21006-.88024,1.79437-1.95613,3.27633-3.22735,4.4502-1.27153,1.17386-2.46203,2.02175-3.56995,2.54306,2.47712,1.17324,4.67788,3.09764,6.60166,5.7701,1.92254,2.67431,2.88536,5.80399,2.88536,9.38904,0,4.30354-.96281,8.00505-2.88536,11.10084-1.92378,3.09764-4.7281,5.47678-8.41113,7.13991-3.68426,1.66251-8.20008,2.49376-13.54561,2.49376h-30.71017ZM730.11768,694.20606h12.71436c2.67277,0,4.67788-.7,6.01503-2.10247,1.33561-1.40124,2.00481-3.14508,2.00481-5.23277,0-2.08584-.66919-3.79764-2.00481-5.13479-1.33715-1.33531-3.34227-2.0045-6.01503-2.0045h-12.71436v14.47453ZM730.11768,722.76445h13.5946c2.80278,0,4.9222-.814,6.35733-2.44508,1.43328-1.62862,2.15146-3.48707,2.15146-5.57476,0-2.28117-.73328-4.20556-2.20045-5.7701-1.46717-1.56515-3.56995-2.34711-6.30835-2.34711h-13.5946v16.13704Z"/>
            <path class="cls-1" d="M807.63562,736.45703c-5.934,0-11.10022-.9625-15.50112-2.88505s-7.80972-4.89016-10.22029-8.90039c-2.41304-4.00961-3.61956-9.11051-3.61956-15.30579v-39.90387c0-.71664.22799-1.30326.68521-1.76048.45476-.45537,1.04138-.6846,1.75987-.6846h12.61731c.71602,0,1.3199.22923,1.80916.6846.48926.45722.73328,1.04384.73328,1.76048v39.80589c0,4.23945,1.01057,7.41781,3.0317,9.53569,2.02114,2.11973,4.89016,3.17897,8.60708,3.17897,3.65037,0,6.50337-1.05925,8.55778-3.17897,2.05318-2.11788,3.081-5.29624,3.081-9.53569v-39.80589c0-.71664.24402-1.30326.73328-1.76048.48926-.45537,1.05863-.6846,1.7118-.6846h12.71467c.65071,0,1.22254.22923,1.71057.6846.48926.45722.73451,1.04384.73451,1.76048v39.90387c0,6.19527-1.20775,11.29618-3.61956,15.30579-2.41304,4.01023-5.80337,6.97785-10.17099,8.90039-4.36886,1.92254-9.48701,2.88505-15.3557,2.88505Z"/>
            <path class="cls-1" d="M865.94569,735.47912c-.71787,0-1.30511-.24463-1.76048-.73328-.4566-.48926-.6846-1.05925-.6846-1.7118v-50.6621h-17.40919c-.71787,0-1.30511-.24463-1.76048-.73328-.4566-.48926-.6846-1.05925-.6846-1.7118v-10.46492c0-.71664.22799-1.30326.6846-1.76048.45537-.45537,1.04261-.6846,1.76048-.6846h52.61823c.71726,0,1.30388.22923,1.76048.6846.45537.45722.6846,1.04384.6846,1.76048v10.46492c0,.65256-.22923,1.22254-.6846,1.7118-.4566.48865-1.04323.73328-1.76048.73328h-17.40888v50.6621c0,.65256-.22923,1.22254-.6846,1.7118-.4566.48865-1.04384.73328-1.76048.73328h-12.91Z"/>
            <path class="cls-1" d="M928.41171,735.47912c-.71787,0-1.30511-.24463-1.76048-.73328-.4566-.48926-.6846-1.05925-.6846-1.7118v-50.6621h-17.40888c-.71787,0-1.30511-.24463-1.76048-.73328-.4566-.48926-.6846-1.05925-.6846-1.7118v-10.46492c0-.71664.22799-1.30326.6846-1.76048.45537-.45537,1.04261-.6846,1.76048-.6846h52.61792c.71726,0,1.30388.22923,1.76048.6846.45537.45722.6846,1.04384.6846,1.76048v10.46492c0,.65256-.22923,1.22254-.6846,1.7118-.4566.48865-1.04323.73328-1.76048.73328h-17.40888v50.6621c0,.65256-.22923,1.22254-.6846,1.7118-.4566.48865-1.04384.73328-1.76048.73328h-12.91Z"/>
            <path class="cls-1" d="M1047.68479,735.47912c-.71787,0-1.30511-.24463-1.76048-.73328-.4566-.48926-.6846-1.05925-.6846-1.7118v-63.5721c0-.71664.22799-1.30326.6846-1.76048.45537-.45537,1.04261-.6846,1.76048-.6846h10.36756c1.10793,0,1.90714.24463,2.39578.73328.48926.48926.79798.86514.92923,1.12518l23.86419,37.55615v-36.96953c0-.71664.22738-1.30326.6846-1.76048.45537-.45537,1.04199-.6846,1.76048-.6846h11.73614c.71664,0,1.30388.22923,1.76048.6846.45537.45722.6846,1.04384.6846,1.76048v63.47413c0,.71849-.22923,1.32052-.6846,1.80978-.4566.48865-1.04384.73328-1.76048.73328h-10.46492c-1.04384,0-1.80916-.26004-2.29843-.78257-.48865-.52069-.79921-.87993-.92923-1.07588l-23.86357-36.18695v35.60033c0,.65256-.22923,1.22254-.6846,1.7118-.45722.48865-1.04384.73328-1.76048.73328h-11.73676Z"/>
          </g>
          <path class="cls-1" d="M1001.86947,682.6723c10.24282,0,18.576,8.33316,18.576,18.576s-8.33318,18.576-18.576,18.576-18.576-8.33316-18.576-18.576,8.33318-18.576,18.576-18.576M1001.86947,666.03987c-19.44507,0-35.20843,15.76335-35.20843,35.20843s15.76335,35.20843,35.20843,35.20843,35.20843-15.76335,35.20843-35.20843-15.76335-35.20843-35.20843-35.20843h0Z"/>
        </g>
        <g>
          <path class="cls-2" d="M493.90423,585.55522c-42.17721,42.17721-42.17721,110.55914,0,152.73635l152.73634-152.73635c-42.17721-42.17719-110.55914-42.17719-152.73634,0Z"/>
          <path class="cls-5" d="M646.64947,585.56112l-152.73635,152.73635c42.17721,42.17721,110.55914,42.17721,152.73635,0,42.17721-42.17721,42.17721-110.55914,0-152.73635Z"/>
          <path class="cls-3" d="M624.49673,607.69688l-108.46551,108.46551c29.95143,29.95144,78.51407,29.95144,108.46551,0,29.95144-29.95367,29.95144-78.51407,0-108.46551Z"/>
          <path class="cls-4" d="M535.15683,626.8075c19.39879-19.3988,50.84981-19.3988,70.24862,0l19.10733-19.10733c-29.95144-29.95144-78.51184-29.95144-108.46329,0-29.95144,29.95144-29.95144,78.51186,0,108.46551l19.10734-19.10956c-19.3988-19.3988-19.3988-50.84982,0-70.24863Z"/>
          <path class="cls-3" d="M535.11817,697.05731c19.39879,19.39878,50.8498,19.39878,70.24861,0,19.39878-19.3988,19.39878-50.84982,0-70.24861l-70.24861,70.24861Z"/>
          <path class="cls-3" d="M605.38582,626.81035c-19.3988-19.39878-50.84982-19.39878-70.24862,0-19.39879,19.3988-19.39879,50.84982,0,70.24861l70.24862-70.24861Z"/>
        </g>
        <g>
          <path class="cls-1" d="M334.62593,695.40878c-4.41211,0-8.14062-.76367-11.18848-2.28613-3.04883-1.52246-5.5332-3.44727-7.45801-5.77441v3.84961c0,.80273-.30078,1.50391-.90234,2.10547s-1.30469.90234-2.10547.90234h-13.59375c-.88379,0-1.60547-.30078-2.16602-.90234-.56152-.60156-.8418-1.30273-.8418-2.10547v-79.39844c0-.88184.28027-1.60352.8418-2.16504.56055-.56055,1.28223-.84277,2.16602-.84277h14.67676c.88086,0,1.60352.28223,2.16504.84277.56055.56152.8418,1.2832.8418,2.16504v25.74414c2.00391-2.08398,4.45117-3.78906,7.33887-5.1123,2.88672-1.32324,6.29492-1.98535,10.22559-1.98535,4.00977,0,7.55859.66211,10.64648,1.98535,3.08691,1.32324,5.71484,3.20898,7.87988,5.6543,2.16504,2.44727,3.84961,5.41309,5.05273,8.90234,1.20312,3.48828,1.88281,7.3584,2.04492,11.6084.0791,1.60547.12012,3.02832.12012,4.27051,0,1.24512-.04102,2.66797-.12012,4.27148-.16211,4.49219-.8418,8.48047-2.04492,11.96973-1.20312,3.48828-2.9082,6.45703-5.11328,8.90234-2.20605,2.44727-4.83203,4.29102-7.87988,5.5332-3.04883,1.24316-6.57617,1.86523-10.58594,1.86523ZM328.12983,679.28866c2.72559,0,4.85156-.56055,6.37598-1.68457,1.52246-1.12207,2.62598-2.64648,3.30762-4.57129.68066-1.9248,1.10156-4.04883,1.26367-6.37598.15918-2.48535.15918-4.97168,0-7.45898-.16211-2.3252-.58301-4.45117-1.26367-6.37598-.68164-1.9248-1.78516-3.44727-3.30762-4.57129-1.52441-1.12207-3.65039-1.68359-6.37598-1.68359-2.4873,0-4.53223.54102-6.13574,1.62402-1.60547,1.08203-2.80859,2.48633-3.6084,4.20996-.80273,1.72559-1.24512,3.59082-1.32422,5.59375-.08008,1.52441-.12012,3.00781-.12012,4.45117,0,1.44434.04004,2.96875.12012,4.57129.16016,2.16602.60156,4.17188,1.32422,6.01562.72168,1.8457,1.88281,3.34961,3.48828,4.51074,1.60352,1.16406,3.6875,1.74512,6.25586,1.74512Z"/>
          <path class="cls-1" d="M379.6894,717.06308c-.72168,0-1.32324-.24121-1.80371-.72168-.48145-.48145-.72266-1.08301-.72266-1.80469,0-.16211.01953-.38184.06055-.66211.03906-.28125.13867-.58203.30078-.90234l9.38379-22.61621-23.09766-54.61621c-.24121-.56055-.36133-1.04199-.36133-1.44434.16016-.72168.48145-1.3418.96191-1.86426.48145-.52051,1.08301-.78223,1.80469-.78223h13.71484c1.04102,0,1.82324.26172,2.3457.78223.52051.52246.90234,1.10352,1.14258,1.74414l13.71484,35.00781,14.0752-35.00781c.31934-.64062.74023-1.22168,1.2627-1.74414.52051-.52051,1.30273-.78223,2.3457-.78223h13.47363c.72168,0,1.34277.26172,1.86523.78223.52051.52246.78125,1.10352.78125,1.74414,0,.40234-.12012.92285-.36035,1.56445l-34.04492,78.79688c-.24121.64062-.64355,1.22168-1.20312,1.74414-.5625.52051-1.36523.78223-2.40625.78223h-13.2334Z"/>
        </g>
      </g>
    </g>
  </g>
</svg>